<?xml version="1.0" encoding="UTF-8"?>
<svg xmlns="http://www.w3.org/2000/svg" width="174" height="64" viewBox="0 0 174 64" fill="none">
  <path d="M47.9073 34.3927C47.9073 35.2718 47.9023 53.178 47.9023 53.178H51.7794V44.1808L61.5593 44.1775C63.2926 44.1426 64.6885 42.7284 64.6885 40.9868V40.3038H51.7794V35.1837C51.7794 35.1837 64.6852 35.1837 64.6902 35.1837C66.4534 35.1837 67.8842 33.7529 67.8842 31.9897C67.8842 31.8916 67.8842 31.3066 67.8842 31.3066H51.0565C49.3714 31.3083 47.9073 32.7026 47.9073 34.3943V34.3927ZM69.4679 34.3927C69.4679 35.2718 69.4629 53.178 69.4629 53.178H73.34V44.1808L83.1199 44.1775C84.8532 44.1426 86.2474 42.7284 86.2474 40.9868V40.3038H73.3383V35.1837C73.3383 35.1837 86.2441 35.1837 86.2474 35.1837C88.0106 35.1837 89.4415 33.7529 89.4415 31.9897V31.3066H72.6138C70.9287 31.3083 69.4646 32.7026 69.4646 34.3943L69.4679 34.3927Z" fill="#EE3124"></path>
  <path d="M127.699 35.4215H117.994C115.694 35.4215 113.823 37.2944 113.823 39.5961V49.0054C113.823 51.307 115.693 53.1782 117.994 53.1782H131.872V49.3028H117.994C117.836 49.3028 117.7 49.1666 117.7 49.0054V39.5961C117.7 39.4365 117.836 39.3003 117.994 39.3003H127.699C127.861 39.3003 127.993 39.4365 127.993 39.5961V42.3614H122.784C121.924 42.4494 119.927 42.9646 119.93 45.8878V46.2384H128.951C129.826 46.162 131.866 45.6684 131.862 42.712C131.862 42.5824 131.866 42.4694 131.872 42.3497V39.5977C131.872 37.2961 129.999 35.4232 127.701 35.4232L127.699 35.4215ZM114.127 31.9882V31.6641C114.127 31.6641 114.127 31.6592 114.127 31.6575V31.3069H95.7839C94.9829 31.3069 94.2533 31.6043 93.6916 32.0912C93.3975 32.3322 93.1333 32.648 92.9372 33.0584C92.7161 33.4922 92.5898 33.9824 92.5898 34.5026C92.5898 34.6006 92.5898 35.1856 92.5898 35.1856H101.431V53.1799H105.306V35.1856H110.933C110.943 35.1856 110.953 35.1856 110.965 35.1856H111.237C111.945 35.1208 113.418 34.7751 113.939 33.0634C114.059 32.7277 114.127 32.3688 114.127 31.9915V31.9882ZM138.576 49.0054V39.5961C138.576 39.4382 138.714 39.3003 138.872 39.3003H149.715C150.584 39.2188 152.609 38.717 152.607 35.7739V35.4232H138.873C136.574 35.4232 134.702 37.2961 134.702 39.5977V49.007C134.702 51.3086 136.574 53.1799 138.873 53.1799H152.751V49.3045H138.873C138.716 49.3045 138.578 49.1665 138.578 49.007L138.576 49.0054ZM169.484 35.4215H159.484V33.1448C159.44 32.3904 159.071 29.9292 156.105 29.9292C156.053 29.9292 156.002 29.9292 155.957 29.9309H155.606V53.1765H159.484V39.5944C159.484 39.4365 159.621 39.2986 159.779 39.2986H169.484C169.642 39.2986 169.78 39.4382 169.78 39.5944V53.1765H173.657V39.5944C173.657 37.2928 171.786 35.4199 169.486 35.4199L169.484 35.4215Z" fill="#BCBEC0"></path>
  <path fill-rule="evenodd" clip-rule="evenodd" d="M0.120851 25.3508C-1.17039 12.7059 8.03283 1.41047 20.6794 0.120889C33.3242 -1.17035 44.6214 8.02954 45.9143 20.6761C47.2072 33.3209 38.0023 44.6181 25.3574 45.9093C12.7092 47.2022 1.41376 37.9973 0.120851 25.3508Z" fill="url(#paint0_linear_297_9814)"></path>
  <path fill-rule="evenodd" clip-rule="evenodd" d="M5.1381 17.9309C5.66157 14.682 6.74343 11.8602 11.1888 8.48505C15.9516 5.11319 22.1037 3.39153 28.5982 4.52656C32.9704 5.29101 36.8508 7.25861 39.8321 10.0538C44.2509 14.127 45.4175 20.8175 44.02 26.7486C43.6593 28.2791 43.1608 29.5039 42.511 30.9164C39.5147 37.3195 31.6858 42.3266 21.1083 40.6598C20.0979 40.5002 19.0892 40.2842 18.0788 40.01C7.79703 37.1666 3.89172 25.6617 5.1381 17.9292V17.9309Z" fill="url(#paint1_linear_297_9814)"></path>
  <path fill-rule="evenodd" clip-rule="evenodd" d="M10.0838 17.783C10.2882 16.1511 10.6837 13.2462 16.1129 10.8948C20.3955 9.34759 24.8907 8.57983 30.162 9.41074C33.7084 9.97078 36.9922 11.2653 39.6577 13.1964C43.8173 16.1345 43.9154 22.3614 42.4762 26.8749C42.1073 28.0382 41.8547 28.9107 41.3179 29.8745C39.5514 33.1782 34.0158 37.4442 23.5264 36.2177C22.5243 36.0997 21.4939 35.9336 20.432 35.7142C10.7502 33.6602 9.60022 21.6667 10.0838 17.7814V17.783Z" fill="url(#paint2_linear_297_9814)"></path>
  <path d="M42.8631 32.6779C42.5607 33.2612 42.23 33.8395 41.871 34.4046C35.1838 44.9223 21.2377 48.0283 10.7217 41.3427C10.15 40.9804 9.60326 40.5966 9.07812 40.1927C9.72125 40.7112 10.3976 41.1981 11.1089 41.6502C21.4205 48.2044 35.0941 45.1599 41.6483 34.8466C42.097 34.1387 42.5009 33.4125 42.8615 32.6763L42.8631 32.6779Z" fill="white"></path>
  <path d="M27.8336 44.7627C27.915 44.2625 27.5777 43.7905 27.0774 43.7108C26.5772 43.6277 26.1053 43.9667 26.0238 44.4669C25.9424 44.9671 26.2798 45.4391 26.78 45.5188C27.2802 45.6019 27.7521 45.2629 27.8336 44.7627Z" fill="url(#paint3_radial_297_9814)"></path>
  <path d="M28.5533 44.3803C28.525 44.136 27.8437 44.013 27.031 44.1044C26.2201 44.1958 25.5836 44.47 25.6102 44.7143C25.6384 44.9586 26.3198 45.0816 27.1308 44.9902C27.9434 44.8988 28.5799 44.6246 28.5533 44.3803Z" fill="url(#paint4_radial_297_9814)"></path>
  <path fill-rule="evenodd" clip-rule="evenodd" d="M14.8696 18.0671C14.8696 18.0671 14.5771 14.7019 19.9149 13.9375C25.5336 13.1315 33.2926 13.2677 39.0426 15.5777C43.8968 17.527 41.6799 26.1918 39.807 27.8453C39.807 27.8453 35.7272 32.324 23.0774 31.3119C14.145 30.5973 14.8696 18.0688 14.8696 18.0688V18.0671Z" fill="url(#paint5_linear_297_9814)"></path>
  <path d="M13.7703 36.9971C12.1516 37.9726 10.5181 38.9032 8.88281 39.789C15.8791 45.7018 26.131 46.8135 34.4135 41.8247C44.4859 35.759 47.9458 22.8965 42.4634 12.6479C34.9902 21.6567 25.2834 30.0623 13.7703 36.9988V36.9971Z" fill="url(#paint6_radial_297_9814)"></path>
  <path d="M32.3805 8.86879C34.0025 7.89164 35.6294 6.96434 37.268 6.07692C30.2733 0.164124 20.0198 -0.947641 11.7356 4.04118C1.66825 10.1069 -1.79168 22.9678 3.68903 33.2196C11.1623 24.2108 20.8657 15.8069 32.3805 8.87046V8.86879Z" fill="url(#paint7_radial_297_9814)"></path>
  <path d="M127.637 58.0856H128.388V61.9793C128.388 63.5248 127.629 64.0001 126.627 64.0001C126.351 64.0001 126.014 63.9403 125.824 63.8622L125.936 63.249C126.092 63.3088 126.316 63.3603 126.565 63.3603C127.238 63.3603 127.636 63.0578 127.636 61.9178V58.084L127.637 58.0856Z" fill="#BCBEC0"></path>
  <path d="M131.376 61.2897V61.8514H129.244V61.2897H131.376Z" fill="#BCBEC0"></path>
  <path d="M132.023 63.9054V63.4384L132.618 62.8601C134.05 61.4957 134.698 60.7712 134.707 59.9236C134.707 59.3536 134.431 58.8268 133.593 58.8268C133.083 58.8268 132.661 59.0861 132.402 59.3021L132.159 58.767C132.548 58.4396 133.1 58.197 133.748 58.197C134.956 58.197 135.466 59.0262 135.466 59.8289C135.466 60.8642 134.715 61.7018 133.532 62.8418L133.083 63.2556V63.2722H135.604V63.9021H132.021L132.023 63.9054Z" fill="#BCBEC0"></path>
  <path d="M136.892 63.3703C137.057 63.3869 137.246 63.3703 137.505 63.3437C137.946 63.2839 138.359 63.1011 138.68 62.8003C139.051 62.4629 139.318 61.971 139.423 61.3063H139.396C139.086 61.6868 138.637 61.9112 138.075 61.9112C137.065 61.9112 136.417 61.1517 136.417 60.1928C136.417 59.1309 137.184 58.1987 138.333 58.1987C139.481 58.1987 140.189 59.1309 140.189 60.5651C140.189 61.7998 139.775 62.664 139.222 63.1991C138.79 63.6229 138.195 63.8805 137.59 63.9503C137.314 63.9935 137.071 64.0018 136.89 63.9935V63.3719L136.892 63.3703ZM138.265 58.777C137.627 58.777 137.168 59.347 137.168 60.1413C137.168 60.841 137.592 61.3329 138.246 61.3329C138.757 61.3329 139.154 61.0819 139.352 60.7462C139.395 60.6764 139.421 60.59 139.421 60.4704C139.421 59.5115 139.067 58.7786 138.273 58.7786H138.265V58.777Z" fill="#BCBEC0"></path>
  <path d="M143.23 63.9054V62.3765H140.623V61.8763L143.127 58.2934H143.948V61.7816H144.734V62.3765H143.948V63.9054H143.23ZM143.23 61.7816V59.9087C143.23 59.6145 143.239 59.3221 143.257 59.0279H143.23C143.057 59.3553 142.919 59.5979 142.763 59.8572L141.391 61.7649V61.7816H143.23Z" fill="#BCBEC0"></path>
  <path d="M147.659 63.9054V62.3765H145.052V61.8763L147.556 58.2934H148.377V61.7816H149.163V62.3765H148.377V63.9054H147.659ZM147.659 61.7816V59.9087C147.659 59.6145 147.667 59.3221 147.686 59.0279H147.659C147.486 59.3553 147.348 59.5979 147.192 59.8572L145.819 61.7649V61.7816H147.659Z" fill="#BCBEC0"></path>
  <path d="M153.47 61.0387C153.47 62.9465 152.762 64.0001 151.519 64.0001C150.423 64.0001 149.68 62.9731 149.663 61.1168C149.663 59.234 150.474 58.1987 151.614 58.1987C152.754 58.1987 153.47 59.2523 153.47 61.0387ZM150.423 61.1251C150.423 62.5842 150.871 63.4135 151.563 63.4135C152.34 63.4135 152.711 62.5061 152.711 61.0736C152.711 59.6411 152.357 58.7853 151.571 58.7853C150.906 58.7853 150.423 59.5963 150.423 61.1251Z" fill="#BCBEC0"></path>
  <path d="M156.518 63.9054V62.3765H153.911V61.8763L156.415 58.2934H157.236V61.7816H158.022V62.3765H157.236V63.9054H156.518ZM156.518 61.7816V59.9087C156.518 59.6145 156.527 59.3221 156.545 59.0279H156.518C156.345 59.3553 156.207 59.5979 156.051 59.8572L154.679 61.7649V61.7816H156.518Z" fill="#BCBEC0"></path>
  <path d="M158.78 63.0329C158.996 63.1708 159.496 63.3869 160.023 63.3869C160.999 63.3869 161.301 62.7654 161.293 62.2984C161.284 61.5123 160.576 61.1767 159.842 61.1767H159.418V60.6066H159.842C160.395 60.6066 161.093 60.3225 161.093 59.6577C161.093 59.209 160.809 58.8119 160.109 58.8119C159.661 58.8119 159.229 59.0113 158.988 59.1825L158.79 58.6291C159.084 58.413 159.654 58.197 160.257 58.197C161.362 58.197 161.863 58.8534 161.863 59.5348C161.863 60.1131 161.517 60.605 160.827 60.8559V60.8725C161.519 61.0105 162.079 61.529 162.079 62.315C162.079 63.2124 161.379 63.9984 160.033 63.9984C159.403 63.9984 158.85 63.8007 158.574 63.6179L158.782 63.0313L158.78 63.0329Z" fill="#BCBEC0"></path>
  <path d="M166.378 58.9315H164.237L164.021 60.374C164.151 60.3574 164.272 60.3391 164.478 60.3391C164.91 60.3391 165.343 60.4338 165.687 60.6415C166.127 60.8925 166.489 61.3761 166.489 62.084C166.489 63.1808 165.617 64.0001 164.4 64.0001C163.787 64.0001 163.269 63.8273 163.001 63.6544L163.19 63.0761C163.423 63.2141 163.882 63.3869 164.39 63.3869C165.107 63.3869 165.72 62.9199 165.72 62.1688C165.711 61.4442 165.228 60.9257 164.104 60.9257C163.785 60.9257 163.534 60.9606 163.327 60.9855L163.689 58.2917H166.375V58.9299L166.378 58.9315Z" fill="#BCBEC0"></path>
  <path d="M169.461 61.2897V61.8514H167.328V61.2897H169.461Z" fill="#BCBEC0"></path>
  <path d="M170.549 63.3703C170.714 63.3869 170.903 63.3703 171.162 63.3437C171.603 63.2839 172.016 63.1011 172.337 62.8003C172.708 62.4629 172.975 61.971 173.08 61.3063H173.053C172.743 61.6868 172.294 61.9112 171.732 61.9112C170.722 61.9112 170.074 61.1517 170.074 60.1928C170.074 59.1309 170.842 58.1987 171.99 58.1987C173.138 58.1987 173.846 59.1309 173.846 60.5651C173.846 61.7998 173.432 62.664 172.879 63.1991C172.447 63.6229 171.852 63.8805 171.247 63.9503C170.971 63.9935 170.729 64.0018 170.547 63.9935V63.3719L170.549 63.3703ZM171.922 58.777C171.284 58.777 170.825 59.347 170.825 60.1413C170.825 60.841 171.249 61.3329 171.903 61.3329C172.414 61.3329 172.811 61.0819 173.009 60.7462C173.052 60.6764 173.078 60.59 173.078 60.4704C173.078 59.5115 172.724 58.7786 171.93 58.7786H171.922V58.777Z" fill="#BCBEC0"></path>
  <defs>
    <linearGradient id="paint0_linear_297_9814" x1="31.1555" y1="20.0728" x2="-1.57754" y2="31.9017" gradientUnits="userSpaceOnUse">
      <stop stop-color="#D2D3D4"></stop>
      <stop offset="1" stop-color="#6D6E71"></stop>
    </linearGradient>
    <linearGradient id="paint1_linear_297_9814" x1="32.9721" y1="19.4116" x2="-3.65964" y2="33.6435" gradientUnits="userSpaceOnUse">
      <stop stop-color="#E4E5E6"></stop>
      <stop offset="1" stop-color="#9D9FA2"></stop>
    </linearGradient>
    <linearGradient id="paint2_linear_297_9814" x1="34.1222" y1="19.2804" x2="-5.01393" y2="36.1463" gradientUnits="userSpaceOnUse">
      <stop stop-color="white"></stop>
      <stop offset="1" stop-color="#C7C8CA"></stop>
    </linearGradient>
    <radialGradient id="paint3_radial_297_9814" cx="0" cy="0" r="1" gradientUnits="userSpaceOnUse" gradientTransform="translate(26.9519 44.6283) rotate(9.29001) scale(0.918477)">
      <stop offset="0.09" stop-color="white"></stop>
      <stop offset="1" stop-color="white" stop-opacity="0"></stop>
    </radialGradient>
    <radialGradient id="paint4_radial_297_9814" cx="0" cy="0" r="1" gradientUnits="userSpaceOnUse" gradientTransform="translate(26.9428 44.5601) rotate(-6.47) scale(1.47969 0.4467)">
      <stop stop-color="white"></stop>
      <stop offset="0.09" stop-color="white" stop-opacity="0.97"></stop>
      <stop offset="0.22" stop-color="white" stop-opacity="0.88"></stop>
      <stop offset="0.39" stop-color="white" stop-opacity="0.73"></stop>
      <stop offset="0.59" stop-color="white" stop-opacity="0.52"></stop>
      <stop offset="0.8" stop-color="white" stop-opacity="0.26"></stop>
      <stop offset="1" stop-color="white" stop-opacity="0"></stop>
    </radialGradient>
    <linearGradient id="paint5_linear_297_9814" x1="38.225" y1="26.6937" x2="10.8563" y2="15.1705" gradientUnits="userSpaceOnUse">
      <stop stop-color="#F68B22"></stop>
      <stop offset="0.08" stop-color="#EC7723"></stop>
      <stop offset="0.23" stop-color="#DA5325"></stop>
      <stop offset="0.32" stop-color="#D44626"></stop>
      <stop offset="0.39" stop-color="#C63E24"></stop>
      <stop offset="0.59" stop-color="#A62C22"></stop>
      <stop offset="0.76" stop-color="#932120"></stop>
      <stop offset="0.88" stop-color="#8C1E20"></stop>
    </linearGradient>
    <radialGradient id="paint6_radial_297_9814" cx="0" cy="0" r="1" gradientUnits="userSpaceOnUse" gradientTransform="translate(47.5768 40.4268) rotate(148.94) scale(23.3199)">
      <stop stop-color="white"></stop>
      <stop offset="1" stop-color="white" stop-opacity="0"></stop>
    </radialGradient>
    <radialGradient id="paint7_radial_297_9814" cx="0" cy="0" r="1" gradientUnits="userSpaceOnUse" gradientTransform="translate(-37.9211 54.3676) rotate(-31.06) scale(90.7739 90.7739)">
      <stop stop-color="white"></stop>
      <stop offset="0.09" stop-color="white" stop-opacity="0.97"></stop>
      <stop offset="0.23" stop-color="white" stop-opacity="0.9"></stop>
      <stop offset="0.4" stop-color="white" stop-opacity="0.77"></stop>
      <stop offset="0.58" stop-color="white" stop-opacity="0.6"></stop>
      <stop offset="0.78" stop-color="white" stop-opacity="0.38"></stop>
      <stop offset="0.99" stop-color="white" stop-opacity="0.11"></stop>
      <stop offset="1" stop-color="white" stop-opacity="0.1"></stop>
    </radialGradient>
  </defs>
</svg>
